<mxfile host="app.diagrams.net" agent="Mozilla/5.0 (Windows NT 10.0; Win64; x64) AppleWebKit/537.36 (KHTML, like Gecko) Chrome/139.0.0.0 Safari/537.36" version="28.1.0" pages="2">
  <diagram name="HQ Topo" id="GOpjCKeXJividRKamB3C">
    <mxGraphModel dx="1412" dy="737" grid="1" gridSize="10" guides="1" tooltips="1" connect="1" arrows="1" fold="1" page="1" pageScale="1" pageWidth="850" pageHeight="1100" math="0" shadow="0">
      <root>
        <mxCell id="0" />
        <mxCell id="1" parent="0" />
        <mxCell id="Ke_lXSDSf3g7396NIP2z-14" value="" style="endArrow=none;dashed=1;html=1;dashPattern=1 2;strokeWidth=4;rounded=0;fillColor=#a20025;strokeColor=#6F0000;shape=link;entryX=0.4;entryY=0.1;entryDx=0;entryDy=0;entryPerimeter=0;" parent="1" target="XTu77mCVGWq_RQ6g_cSt-61" edge="1">
          <mxGeometry width="50" height="50" relative="1" as="geometry">
            <mxPoint x="310" y="300" as="sourcePoint" />
            <mxPoint x="500" y="300.9950000000001" as="targetPoint" />
            <Array as="points">
              <mxPoint x="592" y="300" />
            </Array>
          </mxGeometry>
        </mxCell>
        <mxCell id="Ke_lXSDSf3g7396NIP2z-11" value="" style="endArrow=none;dashed=1;html=1;dashPattern=1 2;strokeWidth=4;rounded=0;fillColor=#a20025;strokeColor=#6F0000;shape=link;entryX=0.88;entryY=0.09;entryDx=0;entryDy=0;entryPerimeter=0;exitX=0.13;exitY=0.77;exitDx=0;exitDy=0;exitPerimeter=0;" parent="1" source="XTu77mCVGWq_RQ6g_cSt-61" target="XTu77mCVGWq_RQ6g_cSt-65" edge="1">
          <mxGeometry width="50" height="50" relative="1" as="geometry">
            <mxPoint x="515" y="416" as="sourcePoint" />
            <mxPoint x="495" y="507" as="targetPoint" />
            <Array as="points">
              <mxPoint x="557" y="540" />
            </Array>
          </mxGeometry>
        </mxCell>
        <mxCell id="Ke_lXSDSf3g7396NIP2z-9" value="" style="endArrow=none;dashed=1;html=1;dashPattern=1 2;strokeWidth=4;rounded=0;fillColor=#a20025;strokeColor=#6F0000;shape=link;entryX=0.12;entryY=0.09;entryDx=0;entryDy=0;entryPerimeter=0;exitX=0.625;exitY=0.2;exitDx=0;exitDy=0;exitPerimeter=0;" parent="1" source="jJH2B-7xsKmhPhyJe4CN-2" target="XTu77mCVGWq_RQ6g_cSt-65" edge="1">
          <mxGeometry width="50" height="50" relative="1" as="geometry">
            <mxPoint x="475" y="310" as="sourcePoint" />
            <mxPoint x="320" y="360" as="targetPoint" />
            <Array as="points">
              <mxPoint x="475" y="396" />
            </Array>
          </mxGeometry>
        </mxCell>
        <mxCell id="jJH2B-7xsKmhPhyJe4CN-4" value="External" style="swimlane;whiteSpace=wrap;html=1;" parent="1" vertex="1">
          <mxGeometry x="420" y="230" width="417" height="230" as="geometry" />
        </mxCell>
        <mxCell id="jJH2B-7xsKmhPhyJe4CN-2" value="Internet Primary" style="ellipse;shape=cloud;whiteSpace=wrap;html=1;" parent="jJH2B-7xsKmhPhyJe4CN-4" vertex="1">
          <mxGeometry y="150" width="120" height="80" as="geometry" />
        </mxCell>
        <mxCell id="XTu77mCVGWq_RQ6g_cSt-61" value="Internet Secondary" style="ellipse;shape=cloud;whiteSpace=wrap;html=1;" parent="jJH2B-7xsKmhPhyJe4CN-4" vertex="1">
          <mxGeometry x="120" y="150" width="131" height="80" as="geometry" />
        </mxCell>
        <mxCell id="Ke_lXSDSf3g7396NIP2z-8" value="" style="endArrow=none;html=1;rounded=0;entryX=0.4;entryY=0.1;entryDx=0;entryDy=0;entryPerimeter=0;exitX=1;exitY=0.5;exitDx=0;exitDy=0;strokeWidth=4;exitPerimeter=0;" parent="1" source="XTu77mCVGWq_RQ6g_cSt-64" target="XTu77mCVGWq_RQ6g_cSt-61" edge="1">
          <mxGeometry width="50" height="50" relative="1" as="geometry">
            <mxPoint x="270" y="410" as="sourcePoint" />
            <mxPoint x="500" y="300.9950000000001" as="targetPoint" />
            <Array as="points">
              <mxPoint x="592" y="301" />
            </Array>
          </mxGeometry>
        </mxCell>
        <mxCell id="E1R83yzNPK5_dIL1MmBT-2" value="" style="endArrow=none;html=1;rounded=0;exitX=0.5;exitY=0;exitDx=0;exitDy=0;exitPerimeter=0;entryX=0.5;entryY=0.98;entryDx=0;entryDy=0;entryPerimeter=0;strokeWidth=4;strokeColor=light-dark(#FFFFFF,#FFFF99);" parent="1" source="re71gaIuVMO5YuEKO1F2-12" target="XTu77mCVGWq_RQ6g_cSt-58" edge="1">
          <mxGeometry width="50" height="50" relative="1" as="geometry">
            <mxPoint x="277" y="730" as="sourcePoint" />
            <mxPoint x="277" y="320" as="targetPoint" />
          </mxGeometry>
        </mxCell>
        <mxCell id="jJH2B-7xsKmhPhyJe4CN-14" value="" style="endArrow=none;html=1;rounded=0;entryX=0;entryY=0.5;entryDx=0;entryDy=0;entryPerimeter=0;exitX=0.88;exitY=0.09;exitDx=0;exitDy=0;exitPerimeter=0;strokeWidth=4;" parent="1" target="jJH2B-7xsKmhPhyJe4CN-13" edge="1" source="XTu77mCVGWq_RQ6g_cSt-64">
          <mxGeometry width="50" height="50" relative="1" as="geometry">
            <mxPoint x="301" y="261" as="sourcePoint" />
            <mxPoint x="350" y="320" as="targetPoint" />
            <Array as="points">
              <mxPoint x="306" y="173" />
            </Array>
          </mxGeometry>
        </mxCell>
        <mxCell id="jJH2B-7xsKmhPhyJe4CN-24" value="" style="endArrow=none;html=1;rounded=0;exitX=0;exitY=0.98;exitDx=0;exitDy=0;exitPerimeter=0;strokeWidth=8;strokeColor=#001DBC;entryX=0.5;entryY=0;entryDx=0;entryDy=0;entryPerimeter=0;fillColor=#0050ef;" parent="1" source="XTu77mCVGWq_RQ6g_cSt-58" target="XTu77mCVGWq_RQ6g_cSt-53" edge="1">
          <mxGeometry width="50" height="50" relative="1" as="geometry">
            <mxPoint x="251" y="283" as="sourcePoint" />
            <mxPoint x="180" y="650" as="targetPoint" />
            <Array as="points">
              <mxPoint x="100" y="630" />
            </Array>
          </mxGeometry>
        </mxCell>
        <mxCell id="XTu77mCVGWq_RQ6g_cSt-25" value="" style="endArrow=none;html=1;rounded=0;entryX=0.87;entryY=0.74;entryDx=0;entryDy=0;entryPerimeter=0;exitX=0;exitY=0.5;exitDx=0;exitDy=0;exitPerimeter=0;strokeWidth=4;strokeColor=light-dark(#FFFFFF,#99FF99);" parent="1" source="XTu77mCVGWq_RQ6g_cSt-31" target="XTu77mCVGWq_RQ6g_cSt-58" edge="1">
          <mxGeometry width="50" height="50" relative="1" as="geometry">
            <mxPoint x="496" y="676.5" as="sourcePoint" />
            <mxPoint x="305.6400000000001" y="426.20000000000005" as="targetPoint" />
            <Array as="points">
              <mxPoint x="314" y="740" />
            </Array>
          </mxGeometry>
        </mxCell>
        <mxCell id="jJH2B-7xsKmhPhyJe4CN-8" value="Zone 0 Transport-Boundary -- Collapsed Core/Distro Layer" style="swimlane;whiteSpace=wrap;html=1;" parent="1" vertex="1">
          <mxGeometry x="3" y="230" width="417" height="430" as="geometry" />
        </mxCell>
        <mxCell id="Ke_lXSDSf3g7396NIP2z-1" value="" style="endArrow=none;html=1;rounded=0;entryX=0.5;entryY=0;entryDx=0;entryDy=0;entryPerimeter=0;exitX=0.5;exitY=1;exitDx=0;exitDy=0;strokeWidth=6;fillColor=#60a917;strokeColor=light-dark(#2D7600,#FF0000);exitPerimeter=0;" parent="jJH2B-7xsKmhPhyJe4CN-8" source="XTu77mCVGWq_RQ6g_cSt-64" target="XTu77mCVGWq_RQ6g_cSt-58" edge="1">
          <mxGeometry width="50" height="50" relative="1" as="geometry">
            <mxPoint x="397" y="360" as="sourcePoint" />
            <mxPoint x="447" y="310" as="targetPoint" />
          </mxGeometry>
        </mxCell>
        <mxCell id="XTu77mCVGWq_RQ6g_cSt-64" value="" style="shape=mxgraph.cisco.security.router_firewall;sketch=0;html=1;pointerEvents=1;dashed=0;fillColor=#036897;strokeColor=#ffffff;strokeWidth=2;verticalLabelPosition=bottom;verticalAlign=top;align=center;outlineConnect=0;" parent="jJH2B-7xsKmhPhyJe4CN-8" vertex="1">
          <mxGeometry x="234.56" y="40" width="78" height="62" as="geometry" />
        </mxCell>
        <mxCell id="jJH2B-7xsKmhPhyJe4CN-26" value="Core Switch is fully L2. Spine keeps 80G uplink through LAG." style="text;html=1;align=center;verticalAlign=middle;whiteSpace=wrap;rounded=0;fillColor=light-dark(#000000,#030303);fillStyle=solid;" parent="jJH2B-7xsKmhPhyJe4CN-8" vertex="1">
          <mxGeometry x="27.5" y="337" width="135" height="50" as="geometry" />
        </mxCell>
        <mxCell id="XTu77mCVGWq_RQ6g_cSt-58" value="&lt;font style=&quot;color: light-dark(rgb(255, 255, 255), rgb(0, 0, 0)); background-color: light-dark(rgb(255, 255, 255), rgb(255, 255, 255));&quot;&gt;CORE SWITCH&lt;/font&gt;&lt;div&gt;&lt;br&gt;&lt;/div&gt;" style="shape=mxgraph.cisco.switches.workgroup_switch;sketch=0;html=1;pointerEvents=1;dashed=0;fillColor=#036897;strokeColor=#ffffff;strokeWidth=2;verticalLabelPosition=bottom;verticalAlign=top;align=center;outlineConnect=0;" parent="jJH2B-7xsKmhPhyJe4CN-8" vertex="1">
          <mxGeometry x="220.06" y="350" width="101" height="50" as="geometry" />
        </mxCell>
        <mxCell id="V-Xpbyj-eKvYf4B-asKD-1" value="" style="group" vertex="1" connectable="0" parent="jJH2B-7xsKmhPhyJe4CN-8">
          <mxGeometry x="237.06" y="250" width="73" height="87" as="geometry" />
        </mxCell>
        <mxCell id="XTu77mCVGWq_RQ6g_cSt-42" value="&lt;font style=&quot;color: light-dark(rgb(0, 0, 0), rgb(0, 0, 0));&quot;&gt;Access Subnets&lt;/font&gt;" style="text;html=1;align=center;verticalAlign=middle;whiteSpace=wrap;rounded=0;fillColor=light-dark(#FFFFFF,#FFFF99);" parent="V-Xpbyj-eKvYf4B-asKD-1" vertex="1">
          <mxGeometry y="30" width="73" height="30" as="geometry" />
        </mxCell>
        <mxCell id="XTu77mCVGWq_RQ6g_cSt-52" value="&lt;font style=&quot;color: light-dark(rgb(0, 0, 0), rgb(0, 0, 0));&quot;&gt;Direct P2P Subnets&lt;/font&gt;" style="text;html=1;align=center;verticalAlign=middle;whiteSpace=wrap;rounded=0;fillColor=light-dark(#FFFFFF,#99FF99);" parent="V-Xpbyj-eKvYf4B-asKD-1" vertex="1">
          <mxGeometry width="73" height="30" as="geometry" />
        </mxCell>
        <mxCell id="XTu77mCVGWq_RQ6g_cSt-60" value="&lt;font style=&quot;color: light-dark(rgb(0, 0, 0), rgb(0, 0, 0));&quot;&gt;Server Subnets&lt;/font&gt;" style="text;html=1;align=center;verticalAlign=middle;whiteSpace=wrap;rounded=0;fillColor=#0050ef;fontColor=#ffffff;strokeColor=#001DBC;rotation=0;" parent="V-Xpbyj-eKvYf4B-asKD-1" vertex="1">
          <mxGeometry y="60" width="73" height="27" as="geometry" />
        </mxCell>
        <mxCell id="V-Xpbyj-eKvYf4B-asKD-2" value="" style="shape=mxgraph.cisco.switches.layer_3_switch;sketch=0;html=1;pointerEvents=1;dashed=0;fillColor=#036897;strokeColor=#ffffff;strokeWidth=2;verticalLabelPosition=bottom;verticalAlign=top;align=center;outlineConnect=0;" vertex="1" parent="jJH2B-7xsKmhPhyJe4CN-8">
          <mxGeometry x="37" y="150" width="80" height="80" as="geometry" />
        </mxCell>
        <mxCell id="V-Xpbyj-eKvYf4B-asKD-3" value="" style="group" vertex="1" connectable="0" parent="jJH2B-7xsKmhPhyJe4CN-8">
          <mxGeometry x="345.56" y="50" width="54.94" height="73" as="geometry" />
        </mxCell>
        <mxCell id="re71gaIuVMO5YuEKO1F2-9" value="&lt;font style=&quot;color: light-dark(rgb(0, 0, 0), rgb(3, 3, 3));&quot;&gt;P2P Subnets&lt;/font&gt;" style="text;html=1;align=center;verticalAlign=middle;whiteSpace=wrap;rounded=0;fillColor=light-dark(#FFFFFF,#FF9999);fillStyle=solid;rotation=90;" parent="V-Xpbyj-eKvYf4B-asKD-3" vertex="1">
          <mxGeometry x="3.4399999999999977" y="21.5" width="73" height="30" as="geometry" />
        </mxCell>
        <mxCell id="Ke_lXSDSf3g7396NIP2z-4" value="&lt;font style=&quot;color: light-dark(rgb(0, 0, 0), rgb(3, 3, 3));&quot;&gt;EXT Subnets&lt;/font&gt;" style="text;html=1;align=center;verticalAlign=middle;whiteSpace=wrap;rounded=0;fillColor=light-dark(#000000,#FFFFFF);fillStyle=solid;rotation=90;" parent="V-Xpbyj-eKvYf4B-asKD-3" vertex="1">
          <mxGeometry x="-21.5" y="21.5" width="73" height="30" as="geometry" />
        </mxCell>
        <mxCell id="V-Xpbyj-eKvYf4B-asKD-4" value="" style="endArrow=none;html=1;rounded=0;entryX=0.95;entryY=0.94;entryDx=0;entryDy=0;entryPerimeter=0;exitX=0.5;exitY=1;exitDx=0;exitDy=0;strokeWidth=6;fillColor=#60a917;strokeColor=light-dark(#2D7600,#FF0000);exitPerimeter=0;" edge="1" parent="jJH2B-7xsKmhPhyJe4CN-8" source="XTu77mCVGWq_RQ6g_cSt-64" target="V-Xpbyj-eKvYf4B-asKD-2">
          <mxGeometry width="50" height="50" relative="1" as="geometry">
            <mxPoint x="170" y="111" as="sourcePoint" />
            <mxPoint x="167" y="359" as="targetPoint" />
          </mxGeometry>
        </mxCell>
        <mxCell id="jJH2B-7xsKmhPhyJe4CN-10" value="Zone 99 DMZ" style="swimlane;horizontal=0;whiteSpace=wrap;html=1;flipH=1;flipV=0;direction=west;" parent="1" vertex="1">
          <mxGeometry x="420" y="120" width="230" height="110" as="geometry" />
        </mxCell>
        <mxCell id="jJH2B-7xsKmhPhyJe4CN-13" value="" style="shape=mxgraph.cisco.servers.fileserver;sketch=0;html=1;pointerEvents=1;dashed=0;fillColor=#036897;strokeColor=#ffffff;strokeWidth=2;verticalLabelPosition=bottom;verticalAlign=top;align=center;outlineConnect=0;" parent="jJH2B-7xsKmhPhyJe4CN-10" vertex="1">
          <mxGeometry x="160" y="22" width="43" height="62" as="geometry" />
        </mxCell>
        <mxCell id="HZd8nQwNkeKrvnVlvSjB-2" value="" style="shape=mxgraph.cisco.switches.workgroup_switch;sketch=0;html=1;pointerEvents=1;dashed=0;fillColor=#036897;strokeColor=#ffffff;strokeWidth=2;verticalLabelPosition=bottom;verticalAlign=top;align=center;outlineConnect=0;" parent="jJH2B-7xsKmhPhyJe4CN-10" vertex="1">
          <mxGeometry x="50.000000000000014" y="38" width="70" height="30" as="geometry" />
        </mxCell>
        <mxCell id="jJH2B-7xsKmhPhyJe4CN-18" value="Zone 2 Internal (HQ/Lib/Arc)" style="swimlane;whiteSpace=wrap;html=1;" parent="1" vertex="1">
          <mxGeometry x="217" y="660" width="200" height="440" as="geometry">
            <mxRectangle x="220" y="590" width="190" height="30" as="alternateBounds" />
          </mxGeometry>
        </mxCell>
        <mxCell id="re71gaIuVMO5YuEKO1F2-12" value="" style="shape=mxgraph.cisco.switches.workgroup_switch;sketch=0;html=1;pointerEvents=1;dashed=0;fillColor=#036897;strokeColor=#ffffff;strokeWidth=2;verticalLabelPosition=bottom;verticalAlign=top;align=center;outlineConnect=0;" parent="jJH2B-7xsKmhPhyJe4CN-18" vertex="1">
          <mxGeometry x="6.0600000000000005" y="140" width="101" height="50" as="geometry" />
        </mxCell>
        <mxCell id="jJH2B-7xsKmhPhyJe4CN-41" value="Zone 3... (Cove/DR/Any EPLAN)" style="swimlane;horizontal=0;whiteSpace=wrap;html=1;startSize=23;rotation=90;" parent="1" vertex="1">
          <mxGeometry x="313" y="765.24" width="438" height="227.51" as="geometry" />
        </mxCell>
        <mxCell id="re71gaIuVMO5YuEKO1F2-5" value="Cove/DR FW" style="text;html=1;align=center;verticalAlign=middle;whiteSpace=wrap;rounded=0;rotation=0;" parent="jJH2B-7xsKmhPhyJe4CN-41" vertex="1">
          <mxGeometry x="163.49" y="-82.5" width="120" height="30" as="geometry" />
        </mxCell>
        <mxCell id="XTu77mCVGWq_RQ6g_cSt-9" value="Internet/DMZ" style="ellipse;shape=cloud;whiteSpace=wrap;html=1;rotation=0;" parent="jJH2B-7xsKmhPhyJe4CN-41" vertex="1">
          <mxGeometry x="117.49000000000001" y="75.86" width="110" height="65" as="geometry" />
        </mxCell>
        <mxCell id="XTu77mCVGWq_RQ6g_cSt-10" value="" style="endArrow=none;html=1;rounded=0;entryX=0.625;entryY=0.2;entryDx=0;entryDy=0;entryPerimeter=0;exitX=0.12;exitY=0.91;exitDx=0;exitDy=0;exitPerimeter=0;strokeWidth=4;strokeColor=light-dark(#FFFFFF,#FFFF99);" parent="jJH2B-7xsKmhPhyJe4CN-41" source="XTu77mCVGWq_RQ6g_cSt-31" edge="1">
          <mxGeometry width="50" height="50" relative="1" as="geometry">
            <mxPoint x="192.8499999999999" y="0.20000000000004547" as="sourcePoint" />
            <mxPoint x="191.24" y="88.8599999999999" as="targetPoint" />
          </mxGeometry>
        </mxCell>
        <mxCell id="XTu77mCVGWq_RQ6g_cSt-27" value="" style="endArrow=none;html=1;rounded=0;entryX=0.88;entryY=0.91;entryDx=0;entryDy=0;entryPerimeter=0;exitX=0.5;exitY=0;exitDx=0;exitDy=0;exitPerimeter=0;strokeWidth=4;strokeColor=light-dark(#FFFFFF,#FFFF99);" parent="jJH2B-7xsKmhPhyJe4CN-41" source="XTu77mCVGWq_RQ6g_cSt-55" target="XTu77mCVGWq_RQ6g_cSt-31" edge="1">
          <mxGeometry width="50" height="50" relative="1" as="geometry">
            <mxPoint x="251.49" y="132.49" as="sourcePoint" />
            <mxPoint x="252.1300000000001" y="0.20000000000004547" as="targetPoint" />
          </mxGeometry>
        </mxCell>
        <mxCell id="XTu77mCVGWq_RQ6g_cSt-28" value="" style="endArrow=none;html=1;rounded=0;entryX=0.5;entryY=0.98;entryDx=0;entryDy=0;entryPerimeter=0;exitX=0.5;exitY=0;exitDx=0;exitDy=0;exitPerimeter=0;" parent="jJH2B-7xsKmhPhyJe4CN-41" source="XTu77mCVGWq_RQ6g_cSt-32" target="XTu77mCVGWq_RQ6g_cSt-55" edge="1">
          <mxGeometry width="50" height="50" relative="1" as="geometry">
            <mxPoint x="251.49" y="246.49" as="sourcePoint" />
            <mxPoint x="251.49" y="196.49" as="targetPoint" />
          </mxGeometry>
        </mxCell>
        <mxCell id="XTu77mCVGWq_RQ6g_cSt-31" value="" style="shape=mxgraph.cisco.security.router_firewall;sketch=0;html=1;pointerEvents=1;dashed=0;fillColor=#036897;strokeColor=#ffffff;strokeWidth=2;verticalLabelPosition=bottom;verticalAlign=top;align=center;outlineConnect=0;" parent="jJH2B-7xsKmhPhyJe4CN-41" vertex="1">
          <mxGeometry x="184.49" y="-55.25" width="78" height="62" as="geometry" />
        </mxCell>
        <mxCell id="XTu77mCVGWq_RQ6g_cSt-32" value="" style="shape=mxgraph.cisco.computers_and_peripherals.pc;html=1;pointerEvents=1;dashed=0;fillColor=#036897;strokeColor=#ffffff;strokeWidth=2;verticalLabelPosition=bottom;verticalAlign=top;align=center;outlineConnect=0;" parent="jJH2B-7xsKmhPhyJe4CN-41" vertex="1">
          <mxGeometry x="216.05" y="232.49" width="78" height="70" as="geometry" />
        </mxCell>
        <mxCell id="XTu77mCVGWq_RQ6g_cSt-33" value="Access" style="text;html=1;align=center;verticalAlign=middle;whiteSpace=wrap;rounded=0;" parent="jJH2B-7xsKmhPhyJe4CN-41" vertex="1">
          <mxGeometry x="219.49" y="302.49" width="60" height="30" as="geometry" />
        </mxCell>
        <mxCell id="XTu77mCVGWq_RQ6g_cSt-36" value="L2 Access" style="text;html=1;align=center;verticalAlign=middle;whiteSpace=wrap;rounded=0;" parent="jJH2B-7xsKmhPhyJe4CN-41" vertex="1">
          <mxGeometry x="142.49" y="149.49" width="60" height="30" as="geometry" />
        </mxCell>
        <mxCell id="XTu77mCVGWq_RQ6g_cSt-55" value="" style="shape=mxgraph.cisco.switches.workgroup_switch;sketch=0;html=1;pointerEvents=1;dashed=0;fillColor=#036897;strokeColor=#ffffff;strokeWidth=2;verticalLabelPosition=bottom;verticalAlign=top;align=center;outlineConnect=0;" parent="jJH2B-7xsKmhPhyJe4CN-41" vertex="1">
          <mxGeometry x="212.49" y="140.86000000000013" width="85.12" height="38.63" as="geometry" />
        </mxCell>
        <mxCell id="XTu77mCVGWq_RQ6g_cSt-11" value="WAN (ROs)" style="swimlane;horizontal=0;whiteSpace=wrap;html=1;flipH=1;flipV=0;direction=west;startSize=23;" parent="1" vertex="1">
          <mxGeometry x="420" y="460" width="360" height="200" as="geometry" />
        </mxCell>
        <mxCell id="XTu77mCVGWq_RQ6g_cSt-13" value="RO FW" style="text;html=1;align=center;verticalAlign=middle;whiteSpace=wrap;rounded=0;" parent="XTu77mCVGWq_RQ6g_cSt-11" vertex="1">
          <mxGeometry x="44.5" y="87" width="80" height="30" as="geometry" />
        </mxCell>
        <mxCell id="XTu77mCVGWq_RQ6g_cSt-22" value="" style="endArrow=none;html=1;rounded=0;entryX=0;entryY=0.5;entryDx=0;entryDy=0;entryPerimeter=0;exitX=1;exitY=0.5;exitDx=0;exitDy=0;" parent="XTu77mCVGWq_RQ6g_cSt-11" edge="1" target="XTu77mCVGWq_RQ6g_cSt-66" source="XTu77mCVGWq_RQ6g_cSt-13">
          <mxGeometry width="50" height="50" relative="1" as="geometry">
            <mxPoint x="109.5" y="52" as="sourcePoint" />
            <mxPoint x="149.5" y="52" as="targetPoint" />
          </mxGeometry>
        </mxCell>
        <mxCell id="XTu77mCVGWq_RQ6g_cSt-24" value="" style="endArrow=none;html=1;rounded=0;entryX=0.16;entryY=0.5;entryDx=0;entryDy=0;entryPerimeter=0;exitX=0.98;exitY=0.5;exitDx=0;exitDy=0;exitPerimeter=0;" parent="XTu77mCVGWq_RQ6g_cSt-11" target="XTu77mCVGWq_RQ6g_cSt-34" edge="1" source="XTu77mCVGWq_RQ6g_cSt-66">
          <mxGeometry width="50" height="50" relative="1" as="geometry">
            <mxPoint x="213.5" y="52" as="sourcePoint" />
            <mxPoint x="267.17999999999984" y="52.5" as="targetPoint" />
          </mxGeometry>
        </mxCell>
        <mxCell id="XTu77mCVGWq_RQ6g_cSt-29" value="Distribution" style="text;html=1;align=center;verticalAlign=middle;whiteSpace=wrap;rounded=0;" parent="XTu77mCVGWq_RQ6g_cSt-11" vertex="1">
          <mxGeometry x="53" y="153" width="60" height="30" as="geometry" />
        </mxCell>
        <mxCell id="XTu77mCVGWq_RQ6g_cSt-34" value="" style="shape=mxgraph.cisco.computers_and_peripherals.pc;html=1;pointerEvents=1;dashed=0;fillColor=#036897;strokeColor=#ffffff;strokeWidth=2;verticalLabelPosition=bottom;verticalAlign=top;align=center;outlineConnect=0;" parent="XTu77mCVGWq_RQ6g_cSt-11" vertex="1">
          <mxGeometry x="260" y="67" width="78" height="70" as="geometry" />
        </mxCell>
        <mxCell id="XTu77mCVGWq_RQ6g_cSt-35" value="Access" style="text;html=1;align=center;verticalAlign=middle;whiteSpace=wrap;rounded=0;" parent="XTu77mCVGWq_RQ6g_cSt-11" vertex="1">
          <mxGeometry x="269" y="44" width="60" height="30" as="geometry" />
        </mxCell>
        <mxCell id="XTu77mCVGWq_RQ6g_cSt-65" value="" style="shape=mxgraph.cisco.security.router_firewall;sketch=0;html=1;pointerEvents=1;dashed=0;fillColor=#036897;strokeColor=#ffffff;strokeWidth=2;verticalLabelPosition=bottom;verticalAlign=top;align=center;outlineConnect=0;" parent="XTu77mCVGWq_RQ6g_cSt-11" vertex="1">
          <mxGeometry x="44.5" y="74" width="78" height="62" as="geometry" />
        </mxCell>
        <mxCell id="XTu77mCVGWq_RQ6g_cSt-66" value="" style="shape=mxgraph.cisco.switches.workgroup_switch;sketch=0;html=1;pointerEvents=1;dashed=0;fillColor=#036897;strokeColor=#ffffff;strokeWidth=2;verticalLabelPosition=bottom;verticalAlign=top;align=center;outlineConnect=0;" parent="XTu77mCVGWq_RQ6g_cSt-11" vertex="1">
          <mxGeometry x="148.50000000000006" y="82.68" width="85.12" height="38.63" as="geometry" />
        </mxCell>
        <mxCell id="XTu77mCVGWq_RQ6g_cSt-63" value="&lt;font style=&quot;color: light-dark(rgb(0, 0, 0), rgb(3, 3, 3));&quot;&gt;DMZ Subnets&lt;/font&gt;" style="text;html=1;align=center;verticalAlign=middle;whiteSpace=wrap;rounded=0;fillColor=light-dark(#FFFFFF,#FFFFFF);" parent="1" vertex="1">
          <mxGeometry x="270" y="190" width="74" height="27" as="geometry" />
        </mxCell>
        <mxCell id="VD-ZW-kXbVsodiuHJE6c-2" value="Zone 1 Internal (Servers)" style="swimlane;whiteSpace=wrap;html=1;" parent="1" vertex="1">
          <mxGeometry y="660" width="217" height="440" as="geometry">
            <mxRectangle x="220" y="590" width="190" height="30" as="alternateBounds" />
          </mxGeometry>
        </mxCell>
        <mxCell id="jJH2B-7xsKmhPhyJe4CN-16" value="" style="shape=mxgraph.cisco.servers.fileserver;sketch=0;html=1;pointerEvents=1;dashed=0;fillColor=#036897;strokeColor=#ffffff;strokeWidth=2;verticalLabelPosition=bottom;verticalAlign=top;align=center;outlineConnect=0;rotation=0;" parent="VD-ZW-kXbVsodiuHJE6c-2" vertex="1">
          <mxGeometry x="78.06000000000006" y="125.70000000000005" width="43" height="62" as="geometry" />
        </mxCell>
        <mxCell id="re71gaIuVMO5YuEKO1F2-17" value="" style="edgeStyle=orthogonalEdgeStyle;rounded=0;orthogonalLoop=1;jettySize=auto;html=1;endArrow=none;startFill=0;entryX=0.5;entryY=0.98;entryDx=0;entryDy=0;entryPerimeter=0;strokeWidth=7;fillColor=#0050ef;strokeColor=#001DBC;" parent="VD-ZW-kXbVsodiuHJE6c-2" source="jJH2B-7xsKmhPhyJe4CN-16" target="XTu77mCVGWq_RQ6g_cSt-53" edge="1">
          <mxGeometry relative="1" as="geometry">
            <mxPoint x="102.12000000000023" y="79.33000000000015" as="targetPoint" />
            <mxPoint x="-297.38" y="1036.3299999999997" as="sourcePoint" />
          </mxGeometry>
        </mxCell>
        <mxCell id="XTu77mCVGWq_RQ6g_cSt-53" value="SPINE" style="shape=mxgraph.cisco.switches.workgroup_switch;sketch=0;html=1;pointerEvents=1;dashed=0;fillColor=#036897;strokeColor=#ffffff;strokeWidth=2;verticalLabelPosition=bottom;verticalAlign=top;align=center;outlineConnect=0;" parent="VD-ZW-kXbVsodiuHJE6c-2" vertex="1">
          <mxGeometry x="57.000000000000114" y="35.84000000000003" width="85.12" height="38.63" as="geometry" />
        </mxCell>
        <mxCell id="Ke_lXSDSf3g7396NIP2z-2" value="This topology keeps a single routing hop internal of our HQ network. This will reduce the routing load on core switch which is already experiencing bugs. It will also reduce the complexity of our Routing topology. We may also have an opportunity to reduce the number of FW interfaces in use." style="text;html=1;align=center;verticalAlign=middle;whiteSpace=wrap;rounded=0;" parent="1" vertex="1">
          <mxGeometry x="61.5" y="40" width="300" height="100" as="geometry" />
        </mxCell>
        <mxCell id="V-Xpbyj-eKvYf4B-asKD-5" value="" style="endArrow=none;dashed=1;html=1;dashPattern=1 2;strokeWidth=4;rounded=0;fillColor=#a20025;strokeColor=#6F0000;shape=link;entryX=0.625;entryY=0.2;entryDx=0;entryDy=0;entryPerimeter=0;exitX=0.88;exitY=0.91;exitDx=0;exitDy=0;exitPerimeter=0;" edge="1" parent="1">
          <mxGeometry width="50" height="50" relative="1" as="geometry">
            <mxPoint x="600" y="60" as="sourcePoint" />
            <mxPoint x="789" y="130" as="targetPoint" />
            <Array as="points">
              <mxPoint x="789" y="64" />
            </Array>
          </mxGeometry>
        </mxCell>
        <mxCell id="V-Xpbyj-eKvYf4B-asKD-8" value="" style="endArrow=none;html=1;rounded=0;entryX=0.625;entryY=0.2;entryDx=0;entryDy=0;entryPerimeter=0;exitX=0.88;exitY=0.91;exitDx=0;exitDy=0;exitPerimeter=0;strokeWidth=4;" edge="1" parent="1">
          <mxGeometry width="50" height="50" relative="1" as="geometry">
            <mxPoint x="600" y="60" as="sourcePoint" />
            <mxPoint x="789" y="130" as="targetPoint" />
            <Array as="points">
              <mxPoint x="789" y="64" />
            </Array>
          </mxGeometry>
        </mxCell>
        <mxCell id="Ke_lXSDSf3g7396NIP2z-5" value="" style="endArrow=none;html=1;rounded=0;entryX=0.625;entryY=0.2;entryDx=0;entryDy=0;entryPerimeter=0;exitX=0.88;exitY=0.91;exitDx=0;exitDy=0;exitPerimeter=0;strokeWidth=4;" parent="1" source="XTu77mCVGWq_RQ6g_cSt-64" target="jJH2B-7xsKmhPhyJe4CN-2" edge="1">
          <mxGeometry width="50" height="50" relative="1" as="geometry">
            <mxPoint x="542.56" y="319.53740000000016" as="sourcePoint" />
            <mxPoint x="320" y="360" as="targetPoint" />
            <Array as="points">
              <mxPoint x="495" y="330" />
            </Array>
          </mxGeometry>
        </mxCell>
        <mxCell id="V-Xpbyj-eKvYf4B-asKD-11" value="" style="endArrow=none;dashed=1;html=1;dashPattern=1 2;strokeWidth=4;rounded=0;fillColor=#a20025;strokeColor=#6F0000;shape=link;entryX=0.625;entryY=0.2;entryDx=0;entryDy=0;entryPerimeter=0;exitX=0.88;exitY=0.91;exitDx=0;exitDy=0;exitPerimeter=0;" edge="1" parent="1" source="XTu77mCVGWq_RQ6g_cSt-64" target="jJH2B-7xsKmhPhyJe4CN-2">
          <mxGeometry width="50" height="50" relative="1" as="geometry">
            <mxPoint x="320" y="320" as="sourcePoint" />
            <mxPoint x="509" y="390" as="targetPoint" />
            <Array as="points">
              <mxPoint x="495" y="330" />
            </Array>
          </mxGeometry>
        </mxCell>
      </root>
    </mxGraphModel>
  </diagram>
  <diagram id="omkMXJsfDcd_D2TGf_Po" name="BGP Design">
    <mxGraphModel dx="1412" dy="737" grid="1" gridSize="10" guides="1" tooltips="1" connect="1" arrows="1" fold="1" page="1" pageScale="1" pageWidth="850" pageHeight="1100" math="0" shadow="0">
      <root>
        <mxCell id="0" />
        <mxCell id="1" parent="0" />
        <mxCell id="ikU5_Vm7qMPiW7QBLbxS-6" value="" style="endArrow=none;html=1;rounded=0;exitX=0.5;exitY=1;exitDx=0;exitDy=0;exitPerimeter=0;entryX=0.505;entryY=0.927;entryDx=0;entryDy=0;entryPerimeter=0;" parent="1" source="hDasYYCYlZf6ln7YnARy-39" target="ikU5_Vm7qMPiW7QBLbxS-4" edge="1">
          <mxGeometry width="50" height="50" relative="1" as="geometry">
            <mxPoint x="310" y="450" as="sourcePoint" />
            <mxPoint x="360" y="400" as="targetPoint" />
          </mxGeometry>
        </mxCell>
        <mxCell id="ikU5_Vm7qMPiW7QBLbxS-3" value="" style="endArrow=none;html=1;rounded=0;entryX=0.5;entryY=1;entryDx=0;entryDy=0;entryPerimeter=0;exitX=0.5;exitY=0;exitDx=0;exitDy=0;exitPerimeter=0;" parent="1" source="hDasYYCYlZf6ln7YnARy-41" target="JjLuVcTSZgx9C9cJmVsn-20" edge="1">
          <mxGeometry width="50" height="50" relative="1" as="geometry">
            <mxPoint x="310" y="450" as="sourcePoint" />
            <mxPoint x="360" y="400" as="targetPoint" />
          </mxGeometry>
        </mxCell>
        <mxCell id="ikU5_Vm7qMPiW7QBLbxS-2" value="" style="endArrow=none;html=1;rounded=0;entryX=0.5;entryY=1;entryDx=0;entryDy=0;entryPerimeter=0;" parent="1" source="hDasYYCYlZf6ln7YnARy-39" target="JjLuVcTSZgx9C9cJmVsn-2" edge="1">
          <mxGeometry width="50" height="50" relative="1" as="geometry">
            <mxPoint x="310" y="450" as="sourcePoint" />
            <mxPoint x="360" y="400" as="targetPoint" />
          </mxGeometry>
        </mxCell>
        <mxCell id="ikU5_Vm7qMPiW7QBLbxS-1" value="" style="endArrow=none;html=1;rounded=0;entryX=0.5;entryY=1;entryDx=0;entryDy=0;entryPerimeter=0;" parent="1" source="hDasYYCYlZf6ln7YnARy-40" target="JjLuVcTSZgx9C9cJmVsn-19" edge="1">
          <mxGeometry width="50" height="50" relative="1" as="geometry">
            <mxPoint x="310" y="450" as="sourcePoint" />
            <mxPoint x="360" y="400" as="targetPoint" />
          </mxGeometry>
        </mxCell>
        <mxCell id="JjLuVcTSZgx9C9cJmVsn-1" value="e/iBGP Topology -- Same e/iBGP AS number for all firewalls/routers" style="swimlane;whiteSpace=wrap;html=1;" parent="1" vertex="1">
          <mxGeometry y="70" width="850" height="210" as="geometry" />
        </mxCell>
        <mxCell id="JjLuVcTSZgx9C9cJmVsn-6" value="HQ ISP01" style="ellipse;shape=cloud;whiteSpace=wrap;html=1;" parent="JjLuVcTSZgx9C9cJmVsn-1" vertex="1">
          <mxGeometry x="230" y="20" width="81" height="50" as="geometry" />
        </mxCell>
        <mxCell id="JjLuVcTSZgx9C9cJmVsn-7" value="HQ ISP02" style="ellipse;shape=cloud;whiteSpace=wrap;html=1;" parent="JjLuVcTSZgx9C9cJmVsn-1" vertex="1">
          <mxGeometry x="380" y="20" width="84" height="50" as="geometry" />
        </mxCell>
        <mxCell id="JjLuVcTSZgx9C9cJmVsn-8" value="HQ Starlink" style="ellipse;shape=cloud;whiteSpace=wrap;html=1;" parent="JjLuVcTSZgx9C9cJmVsn-1" vertex="1">
          <mxGeometry x="540" y="22.5" width="81" height="47.5" as="geometry" />
        </mxCell>
        <mxCell id="JjLuVcTSZgx9C9cJmVsn-14" value="BGTC ISP" style="ellipse;shape=cloud;whiteSpace=wrap;html=1;" parent="JjLuVcTSZgx9C9cJmVsn-1" vertex="1">
          <mxGeometry y="22.5" width="81" height="50" as="geometry" />
        </mxCell>
        <mxCell id="JjLuVcTSZgx9C9cJmVsn-15" value="BGTC Starlink" style="ellipse;shape=cloud;whiteSpace=wrap;html=1;" parent="JjLuVcTSZgx9C9cJmVsn-1" vertex="1">
          <mxGeometry x="90" y="22.5" width="81" height="50" as="geometry" />
        </mxCell>
        <mxCell id="JjLuVcTSZgx9C9cJmVsn-16" value="DR ISP01" style="ellipse;shape=cloud;whiteSpace=wrap;html=1;" parent="JjLuVcTSZgx9C9cJmVsn-1" vertex="1">
          <mxGeometry x="660" y="22.5" width="81" height="50" as="geometry" />
        </mxCell>
        <mxCell id="JjLuVcTSZgx9C9cJmVsn-18" value="DR ARC" style="ellipse;shape=cloud;whiteSpace=wrap;html=1;" parent="JjLuVcTSZgx9C9cJmVsn-1" vertex="1">
          <mxGeometry x="769" y="22.5" width="81" height="50" as="geometry" />
        </mxCell>
        <mxCell id="JjLuVcTSZgx9C9cJmVsn-2" value="&lt;span style=&quot;background-color: light-dark(#ffffff, var(--ge-dark-color, #121212));&quot;&gt;HQ FW-03&lt;/span&gt;&lt;div&gt;&lt;span style=&quot;background-color: light-dark(#ffffff, var(--ge-dark-color, #121212));&quot;&gt;Internet Router&lt;/span&gt;&lt;/div&gt;" style="shape=mxgraph.cisco.security.router_firewall;sketch=0;html=1;pointerEvents=1;dashed=0;fillColor=#036897;strokeColor=#ffffff;strokeWidth=2;verticalLabelPosition=bottom;verticalAlign=top;align=center;outlineConnect=0;" parent="JjLuVcTSZgx9C9cJmVsn-1" vertex="1">
          <mxGeometry x="386.00000000000006" y="100" width="78" height="62" as="geometry" />
        </mxCell>
        <mxCell id="JjLuVcTSZgx9C9cJmVsn-19" value="&lt;span style=&quot;background-color: light-dark(#ffffff, var(--ge-dark-color, #121212));&quot;&gt;BGTC FW&lt;/span&gt;&lt;div&gt;&lt;span style=&quot;background-color: light-dark(#ffffff, var(--ge-dark-color, #121212));&quot;&gt;Internet Router&lt;/span&gt;&lt;/div&gt;" style="shape=mxgraph.cisco.security.router_firewall;sketch=0;html=1;pointerEvents=1;dashed=0;fillColor=#036897;strokeColor=#ffffff;strokeWidth=2;verticalLabelPosition=bottom;verticalAlign=top;align=center;outlineConnect=0;" parent="JjLuVcTSZgx9C9cJmVsn-1" vertex="1">
          <mxGeometry x="50.00000000000006" y="100" width="78" height="62" as="geometry" />
        </mxCell>
        <mxCell id="JjLuVcTSZgx9C9cJmVsn-20" value="&lt;span style=&quot;background-color: light-dark(#ffffff, var(--ge-dark-color, #121212));&quot;&gt;DR FW&lt;/span&gt;&lt;div&gt;&lt;span style=&quot;background-color: light-dark(#ffffff, var(--ge-dark-color, #121212));&quot;&gt;Internet Router&lt;/span&gt;&lt;/div&gt;" style="shape=mxgraph.cisco.security.router_firewall;sketch=0;html=1;pointerEvents=1;dashed=0;fillColor=#036897;strokeColor=#ffffff;strokeWidth=2;verticalLabelPosition=bottom;verticalAlign=top;align=center;outlineConnect=0;" parent="JjLuVcTSZgx9C9cJmVsn-1" vertex="1">
          <mxGeometry x="720" y="100" width="78" height="62" as="geometry" />
        </mxCell>
        <mxCell id="JjLuVcTSZgx9C9cJmVsn-9" value="" style="endArrow=none;html=1;rounded=0;entryX=0.96;entryY=0.7;entryDx=0;entryDy=0;entryPerimeter=0;exitX=0.12;exitY=0.09;exitDx=0;exitDy=0;exitPerimeter=0;strokeWidth=8;strokeColor=light-dark(#000000,#00FF00);" parent="JjLuVcTSZgx9C9cJmVsn-1" source="JjLuVcTSZgx9C9cJmVsn-2" target="JjLuVcTSZgx9C9cJmVsn-6" edge="1">
          <mxGeometry width="50" height="50" relative="1" as="geometry">
            <mxPoint x="400" y="290" as="sourcePoint" />
            <mxPoint x="450" y="240" as="targetPoint" />
          </mxGeometry>
        </mxCell>
        <mxCell id="JjLuVcTSZgx9C9cJmVsn-10" value="" style="endArrow=none;html=1;rounded=0;entryX=0.55;entryY=0.95;entryDx=0;entryDy=0;entryPerimeter=0;exitX=0.5;exitY=0;exitDx=0;exitDy=0;exitPerimeter=0;strokeColor=light-dark(#000000,#3399FF);strokeWidth=6;" parent="JjLuVcTSZgx9C9cJmVsn-1" source="JjLuVcTSZgx9C9cJmVsn-2" target="JjLuVcTSZgx9C9cJmVsn-7" edge="1">
          <mxGeometry width="50" height="50" relative="1" as="geometry">
            <mxPoint x="400" y="290" as="sourcePoint" />
            <mxPoint x="450" y="240" as="targetPoint" />
          </mxGeometry>
        </mxCell>
        <mxCell id="JjLuVcTSZgx9C9cJmVsn-11" value="" style="endArrow=none;html=1;rounded=0;entryX=0.13;entryY=0.77;entryDx=0;entryDy=0;entryPerimeter=0;exitX=0.88;exitY=0.09;exitDx=0;exitDy=0;exitPerimeter=0;strokeColor=light-dark(#000000,#FF6666);strokeWidth=4;" parent="JjLuVcTSZgx9C9cJmVsn-1" source="JjLuVcTSZgx9C9cJmVsn-2" target="JjLuVcTSZgx9C9cJmVsn-8" edge="1">
          <mxGeometry width="50" height="50" relative="1" as="geometry">
            <mxPoint x="400" y="290" as="sourcePoint" />
            <mxPoint x="450" y="240" as="targetPoint" />
          </mxGeometry>
        </mxCell>
        <mxCell id="JjLuVcTSZgx9C9cJmVsn-39" value="" style="endArrow=none;html=1;rounded=0;entryX=1;entryY=0.5;entryDx=0;entryDy=0;entryPerimeter=0;exitX=0;exitY=0.5;exitDx=0;exitDy=0;exitPerimeter=0;" parent="JjLuVcTSZgx9C9cJmVsn-1" source="JjLuVcTSZgx9C9cJmVsn-2" target="JjLuVcTSZgx9C9cJmVsn-19" edge="1">
          <mxGeometry width="50" height="50" relative="1" as="geometry">
            <mxPoint x="400" y="290" as="sourcePoint" />
            <mxPoint x="450" y="240" as="targetPoint" />
          </mxGeometry>
        </mxCell>
        <mxCell id="JjLuVcTSZgx9C9cJmVsn-40" value="" style="endArrow=none;html=1;rounded=0;entryX=1;entryY=0.5;entryDx=0;entryDy=0;entryPerimeter=0;" parent="JjLuVcTSZgx9C9cJmVsn-1" source="JjLuVcTSZgx9C9cJmVsn-20" target="JjLuVcTSZgx9C9cJmVsn-2" edge="1">
          <mxGeometry width="50" height="50" relative="1" as="geometry">
            <mxPoint x="400" y="290" as="sourcePoint" />
            <mxPoint x="450" y="240" as="targetPoint" />
          </mxGeometry>
        </mxCell>
        <mxCell id="hDasYYCYlZf6ln7YnARy-3" value="" style="endArrow=none;html=1;rounded=0;entryX=0.55;entryY=0.95;entryDx=0;entryDy=0;entryPerimeter=0;exitX=0.12;exitY=0.09;exitDx=0;exitDy=0;exitPerimeter=0;strokeWidth=8;strokeColor=light-dark(#000000,#00FF00);" parent="JjLuVcTSZgx9C9cJmVsn-1" source="JjLuVcTSZgx9C9cJmVsn-19" target="JjLuVcTSZgx9C9cJmVsn-14" edge="1">
          <mxGeometry width="50" height="50" relative="1" as="geometry">
            <mxPoint x="267" y="141" as="sourcePoint" />
            <mxPoint x="180" y="90" as="targetPoint" />
          </mxGeometry>
        </mxCell>
        <mxCell id="hDasYYCYlZf6ln7YnARy-4" value="" style="endArrow=none;html=1;rounded=0;entryX=0.55;entryY=0.95;entryDx=0;entryDy=0;entryPerimeter=0;strokeColor=light-dark(#000000,#3399FF);strokeWidth=6;exitX=0.88;exitY=0.09;exitDx=0;exitDy=0;exitPerimeter=0;" parent="JjLuVcTSZgx9C9cJmVsn-1" source="JjLuVcTSZgx9C9cJmVsn-19" target="JjLuVcTSZgx9C9cJmVsn-15" edge="1">
          <mxGeometry width="50" height="50" relative="1" as="geometry">
            <mxPoint x="435" y="110" as="sourcePoint" />
            <mxPoint x="436" y="78" as="targetPoint" />
          </mxGeometry>
        </mxCell>
        <mxCell id="hDasYYCYlZf6ln7YnARy-5" value="" style="endArrow=none;html=1;rounded=0;entryX=0.55;entryY=0.95;entryDx=0;entryDy=0;entryPerimeter=0;exitX=0.12;exitY=0.09;exitDx=0;exitDy=0;exitPerimeter=0;strokeWidth=8;strokeColor=light-dark(#000000,#00FF00);" parent="JjLuVcTSZgx9C9cJmVsn-1" source="JjLuVcTSZgx9C9cJmVsn-20" target="JjLuVcTSZgx9C9cJmVsn-16" edge="1">
          <mxGeometry width="50" height="50" relative="1" as="geometry">
            <mxPoint x="697" y="181" as="sourcePoint" />
            <mxPoint x="610" y="130" as="targetPoint" />
          </mxGeometry>
        </mxCell>
        <mxCell id="hDasYYCYlZf6ln7YnARy-6" value="" style="endArrow=none;html=1;rounded=0;entryX=0.55;entryY=0.95;entryDx=0;entryDy=0;entryPerimeter=0;exitX=0.88;exitY=0.09;exitDx=0;exitDy=0;exitPerimeter=0;strokeColor=light-dark(#000000,#3399FF);strokeWidth=6;" parent="JjLuVcTSZgx9C9cJmVsn-1" source="JjLuVcTSZgx9C9cJmVsn-20" target="JjLuVcTSZgx9C9cJmVsn-18" edge="1">
          <mxGeometry width="50" height="50" relative="1" as="geometry">
            <mxPoint x="435" y="110" as="sourcePoint" />
            <mxPoint x="436" y="78" as="targetPoint" />
          </mxGeometry>
        </mxCell>
        <mxCell id="JjLuVcTSZgx9C9cJmVsn-25" value="We will receive the remote as number from the Regional Internet Registry. We can take the full table from each provider and filter to defaults only. Rather than doing ECMP we will weight each specific BGP border router to use primarily its&#39; own circuits, then we can weight whether traffic filters to DR, TC, or HQ first, then the 2nd most important, then the third. iBGP will use HQ as primary Route Reflector so that all devices don&#39;t require a mesh. iBGP requires use of the same AS number as well. eBGP AS will also be the same AS number." style="text;html=1;align=center;verticalAlign=middle;whiteSpace=wrap;rounded=0;" parent="1" vertex="1">
          <mxGeometry width="850" height="60" as="geometry" />
        </mxCell>
        <mxCell id="hDasYYCYlZf6ln7YnARy-31" value="OSPF Topology" style="swimlane;whiteSpace=wrap;html=1;" parent="1" vertex="1">
          <mxGeometry y="380" width="850" height="170" as="geometry" />
        </mxCell>
        <mxCell id="hDasYYCYlZf6ln7YnARy-39" value="&lt;span style=&quot;background-color: light-dark(#ffffff, var(--ge-dark-color, #121212));&quot;&gt;HQ FW-03&lt;/span&gt;&lt;div&gt;&lt;span style=&quot;background-color: light-dark(#ffffff, var(--ge-dark-color, #121212));&quot;&gt;Internet Router&lt;/span&gt;&lt;/div&gt;" style="shape=mxgraph.cisco.security.router_firewall;sketch=0;html=1;pointerEvents=1;dashed=0;fillColor=#036897;strokeColor=#ffffff;strokeWidth=2;verticalLabelPosition=bottom;verticalAlign=top;align=center;outlineConnect=0;" parent="hDasYYCYlZf6ln7YnARy-31" vertex="1">
          <mxGeometry x="387.00000000000006" y="40" width="78" height="62" as="geometry" />
        </mxCell>
        <mxCell id="hDasYYCYlZf6ln7YnARy-40" value="&lt;span style=&quot;background-color: light-dark(#ffffff, var(--ge-dark-color, #121212));&quot;&gt;BGTC FW&lt;/span&gt;&lt;div&gt;&lt;span style=&quot;background-color: light-dark(#ffffff, var(--ge-dark-color, #121212));&quot;&gt;Internet Router&lt;/span&gt;&lt;/div&gt;" style="shape=mxgraph.cisco.security.router_firewall;sketch=0;html=1;pointerEvents=1;dashed=0;fillColor=#036897;strokeColor=#ffffff;strokeWidth=2;verticalLabelPosition=bottom;verticalAlign=top;align=center;outlineConnect=0;" parent="hDasYYCYlZf6ln7YnARy-31" vertex="1">
          <mxGeometry x="51.00000000000006" y="40" width="78" height="62" as="geometry" />
        </mxCell>
        <mxCell id="hDasYYCYlZf6ln7YnARy-41" value="&lt;span style=&quot;background-color: light-dark(#ffffff, var(--ge-dark-color, #121212));&quot;&gt;DR FW&lt;/span&gt;&lt;div&gt;&lt;span style=&quot;background-color: light-dark(#ffffff, var(--ge-dark-color, #121212));&quot;&gt;Internet Router&lt;/span&gt;&lt;/div&gt;" style="shape=mxgraph.cisco.security.router_firewall;sketch=0;html=1;pointerEvents=1;dashed=0;fillColor=#036897;strokeColor=#ffffff;strokeWidth=2;verticalLabelPosition=bottom;verticalAlign=top;align=center;outlineConnect=0;" parent="hDasYYCYlZf6ln7YnARy-31" vertex="1">
          <mxGeometry x="721" y="40" width="78" height="62" as="geometry" />
        </mxCell>
        <mxCell id="hDasYYCYlZf6ln7YnARy-51" value="Logical and Virtual Separation. Same physical appliance. Internet Routers also run OSPF facing inside only. They should (by default) only export the current BGP default route into OSPF." style="text;html=1;align=center;verticalAlign=middle;whiteSpace=wrap;rounded=0;labelBackgroundColor=default;" parent="1" vertex="1">
          <mxGeometry y="310" width="850" height="30" as="geometry" />
        </mxCell>
        <mxCell id="ikU5_Vm7qMPiW7QBLbxS-4" value="Access Networks" style="ellipse;shape=cloud;whiteSpace=wrap;html=1;" parent="1" vertex="1">
          <mxGeometry x="259" y="550" width="333" height="150" as="geometry" />
        </mxCell>
        <mxCell id="ikU5_Vm7qMPiW7QBLbxS-5" value="" style="endArrow=none;html=1;rounded=0;entryX=0.07;entryY=0.4;entryDx=0;entryDy=0;entryPerimeter=0;exitX=0.88;exitY=0.91;exitDx=0;exitDy=0;exitPerimeter=0;" parent="1" source="hDasYYCYlZf6ln7YnARy-40" target="ikU5_Vm7qMPiW7QBLbxS-4" edge="1">
          <mxGeometry width="50" height="50" relative="1" as="geometry">
            <mxPoint x="310" y="450" as="sourcePoint" />
            <mxPoint x="360" y="400" as="targetPoint" />
          </mxGeometry>
        </mxCell>
        <mxCell id="ikU5_Vm7qMPiW7QBLbxS-7" value="" style="endArrow=none;html=1;rounded=0;entryX=0.12;entryY=0.91;entryDx=0;entryDy=0;entryPerimeter=0;exitX=0.88;exitY=0.25;exitDx=0;exitDy=0;exitPerimeter=0;" parent="1" source="ikU5_Vm7qMPiW7QBLbxS-4" target="hDasYYCYlZf6ln7YnARy-41" edge="1">
          <mxGeometry width="50" height="50" relative="1" as="geometry">
            <mxPoint x="310" y="450" as="sourcePoint" />
            <mxPoint x="360" y="400" as="targetPoint" />
          </mxGeometry>
        </mxCell>
      </root>
    </mxGraphModel>
  </diagram>
</mxfile>
